<?xml version="1.0" encoding="utf-8"?>
<!-- Generator: Adobe Illustrator 23.0.1, SVG Export Plug-In . SVG Version: 6.00 Build 0)  -->
<svg version="1.1" id="Layer_1" xmlns="http://www.w3.org/2000/svg" xmlns:xlink="http://www.w3.org/1999/xlink" x="0px" y="0px"
	 viewBox="0 0 483.52 546.96" style="enable-background:new 0 0 483.52 546.96;" xml:space="preserve">
<style type="text/css">
	.st0{display:none;}
	.st1{fill:#FFFFFF;}
</style>
<g id="Pq4vfC_1_" class="st0">
	
		<image style="display:inline;overflow:visible;" width="548" height="548" id="Pq4vfC_2_" xlink:href="933BD13199C1BCEB.png"  transform="matrix(1 0 0 1 546.9139 -0.3031)">
	</image>
</g>
<path class="st1" d="M471.52,201.49h-30.28v-75.96c-0.01,0.01-0.02,0.02-0.03,0.03c0.01-0.03,0.02-0.06,0.03-0.09L330.48,0
	c-0.05,0.01-0.09,0.02-0.13,0.02H65.37c-12.34,0-22.44,10.1-22.44,22.44v179.03H12c-6.6,0-12,5.4-12,12v190.68c0,6.6,5.4,12,12,12
	h30.94v108.35c0,12.34,10.1,22.44,22.44,22.44h353.44c12.34,0,22.44-10.1,22.44-22.44V416.17h30.28c6.6,0,12-5.4,12-12V213.49
	C483.52,206.89,478.12,201.49,471.52,201.49z M63.94,29.53c0-4.68,3.83-8.5,8.5-8.5h241.99c0,0.1-0.01,0.19-0.01,0.29v98.54
	c0,12.2,9.98,22.19,22.19,22.19h83.18c0.15,0,0.3-0.02,0.46-0.02v59.47H63.94V29.53z M212.79,285.46c2.7,2.49,6.09,4.54,10.18,6.13
	c4.08,1.59,9.73,3.43,16.93,5.5c9.97,2.91,18.14,5.78,24.51,8.62c6.37,2.84,11.8,6.96,16.3,12.36s6.75,12.46,6.75,21.19
	c0,14.12-5.37,25.1-16.1,32.92c-10.73,7.83-25.79,11.74-45.18,11.74c-10.94,0-20.91-1.14-29.91-3.43c-9-2.29-16.41-5.3-22.22-9.04
	c-2.36-1.66-4.15-3.63-5.4-5.92s-1.87-4.6-1.87-6.96c0-3.46,1.04-6.44,3.12-8.93s4.78-3.74,8.1-3.74c2.77,0,5.54,0.83,8.31,2.49
	c4.85,3.05,10.83,5.54,17.97,7.48c7.13,1.94,14.85,2.91,23.16,2.91c9,0,15.89-1.38,20.67-4.15c4.78-2.77,7.17-6.71,7.17-11.84
	c0-3.46-1.28-6.4-3.84-8.83c-2.56-2.42-5.85-4.39-9.87-5.92c-4.02-1.52-9.49-3.32-16.41-5.4c-10.25-3.04-18.59-5.99-25.03-8.83
	c-6.44-2.84-11.98-7.09-16.62-12.77c-4.64-5.68-6.96-13.01-6.96-22.02c0-9,2.49-16.93,7.48-23.78c4.99-6.85,12.05-12.15,21.19-15.89
	c9.14-3.74,19.8-5.61,31.99-5.61c10.25,0,19.8,1.25,28.66,3.74c8.86,2.49,15.92,5.89,21.19,10.18c3.46,2.63,5.19,6.23,5.19,10.8
	c0,3.46-1.11,6.51-3.32,9.14c-2.22,2.63-5.06,3.95-8.52,3.95c-2.91,0-5.82-0.97-8.72-2.91c-4.29-2.77-9.55-5.09-15.79-6.96
	c-6.23-1.87-12.67-2.8-19.32-2.8c-8.72,0-15.55,1.53-20.46,4.57c-4.92,3.05-7.37,7.27-7.37,12.67
	C208.74,279.85,210.09,282.97,212.79,285.46z M37.69,350.99c-5.61-10.59-8.41-23.02-8.41-37.28c0-16.06,3.15-30.12,9.45-42.17
	c1.29-2.47,2.7-4.82,4.21-7.05c1.38-2.05,2.86-4.01,4.42-5.87c0,0,0,0,0,0c1.57-1.86,3.22-3.62,4.97-5.29c0,0,0,0,0,0
	c3.5-3.33,7.37-6.28,11.6-8.84c0.49-0.3,0.98-0.6,1.49-0.88c11.49-6.58,24.92-9.87,40.29-9.87c9.28,0,17.83,1.14,25.65,3.43
	c7.82,2.28,14.23,5.09,19.21,8.41c5.12,3.32,7.69,7.62,7.69,12.88c0,3.46-1.18,6.51-3.53,9.14c-2.36,2.63-5.19,3.95-8.52,3.95
	c-2.91,0-5.54-0.83-7.89-2.49c-9.42-6.23-19.87-9.35-31.36-9.35c-14.12,0-25.1,4.81-32.92,14.44c-5.56,6.84-9.14,15.5-10.74,25.95
	c-0.04,0.27-0.08,0.54-0.12,0.81c-0.18,1.25-0.34,2.51-0.46,3.81c0,0,0,0,0,0.01c-0.12,1.28-0.2,2.59-0.27,3.91
	c-0.02,0.33-0.03,0.66-0.04,0.99c-0.05,1.34-0.09,2.7-0.09,4.09c0,1.35,0.04,2.67,0.09,3.96c0.01,0.21,0.02,0.41,0.03,0.62
	c0.07,1.29,0.16,2.54,0.28,3.77c0.01,0.09,0.02,0.18,0.03,0.27c0.27,2.61,0.67,5.09,1.2,7.42v0l0,0c1.54,6.81,4.18,12.44,7.92,16.88
	c6.37,7.55,15.65,11.32,27.83,11.32c10.39,0,21.11-3.25,32.19-9.76c2.63-1.38,5.12-2.08,7.48-2.08c3.18,0,5.78,1.14,7.79,3.43
	c2.01,2.28,3.01,5.02,3.01,8.2c0,5.12-2.22,9.35-6.65,12.67c-4.71,3.74-11.11,6.93-19.21,9.55s-16.72,3.95-25.86,3.95
	c-13.12,0-24.62-2.45-34.51-7.35l0,0c-0.76-0.38-1.51-0.76-2.25-1.17c-0.84-0.46-1.65-0.94-2.46-1.43c-0.2-0.12-0.41-0.25-0.61-0.38
	c-0.73-0.45-1.44-0.92-2.14-1.4c-0.07-0.05-0.15-0.1-0.22-0.15c-0.79-0.55-1.57-1.12-2.33-1.7c-0.12-0.09-0.23-0.18-0.35-0.27
	c-0.71-0.55-1.41-1.12-2.09-1.71c-0.05-0.04-0.09-0.08-0.14-0.12c-1.54-1.33-3.01-2.74-4.39-4.22c-0.01-0.01-0.02-0.02-0.03-0.03
	c-1.4-1.5-2.73-3.08-3.98-4.74l0,0C41.01,356.69,39.25,353.94,37.69,350.99z M420.25,514.62c0,6.24-5.1,11.34-11.34,11.34H75.27
	c-6.24,0-11.34-5.1-11.34-11.34v-98.45h356.31V514.62z M452.37,254.93l-19.6,36.88l-12.52,23.56l0,0l-30.81,57.96
	c-1.66,3.19-4.15,5.68-7.48,7.48s-6.79,2.7-10.39,2.7c-3.46,0-6.65-0.87-9.55-2.6c-2.91-1.73-4.98-4.26-6.23-7.58l-44.03-118.39
	c-0.69-2.08-1.04-3.81-1.04-5.19c0-4.29,1.8-7.93,5.4-10.9c3.6-2.98,7.61-4.47,12.05-4.47c2.91,0,5.47,0.73,7.68,2.18
	c2.21,1.45,3.81,3.64,4.78,6.54l34.89,98.66l50.06-98.66c2.91-5.82,7.48-8.72,13.71-8.72c0.38,0,0.76,0.02,1.13,0.04
	c0.28,0.02,0.56,0.04,0.83,0.07l0,0c3.2,0.35,6.05,1.54,8.53,3.62c2.98,2.49,4.47,5.68,4.47,9.55
	C454.24,250.02,453.62,252.44,452.37,254.93z"/>
</svg>
