<svg width="1792" height="1792" xmlns="http://www.w3.org/2000/svg">
 <metadata id="metadata3035">image/svg+xml</metadata>

 <g>
  <title>background</title>
  <rect x="-1" y="-1" width="1794" height="1794" id="canvas_background" fill="none"/>
 </g>
 <g>
  <title>Layer 1</title>
  <g transform="matrix(1,0,0,-1,121.49153,1270.2373) " id="g3027">
   <path d="m1190.508469,374.237305q0,-26 -19,-45l-544,-544q-19,-19 -45,-19q-26,0 -45,19q-19,19 -19,45l0,288l-448,0q-26,0 -45,19q-19,19 -19,45l0,384q0,26 19,45q19,19 45,19l448,0l0,288q0,26 19,45q19,19 45,19q26,0 45,-19l544,-544q19,-19 19,-45zm352,352l0,-704q0,-119 -84.5,-203.5q-84.5,-84.5 -203.5,-84.5l-320,0q-13,0 -22.5,9.5q-9.5,9.5 -9.5,22.5q0,4 -1,20q-1,16 -0.5,26.5q0.5,10.5 3,23.5q2.5,13 10,19.5q7.5,6.5 20.5,6.5l320,0q66,0 113,47q47,47 47,113l0,704q0,66 -47,113q-47,47 -113,47l-288,0l-11,0l-13,0q0,0 -11.5,1q-11.5,1 -11.5,3q0,2 -8,5.5q-8,3.5 -7,9q1,5.5 -2,13.5q0,4 -1,20q-1,16 -0.5,26.5q0.5,10.5 3,23.5q2.5,13 10,19.5q7.5,6.5 20.5,6.5l320,0q119,0 203.5,-84.5q84.5,-84.5 84.5,-203.5z" id="path3029" fill="#ffffff"/>
  </g>
 </g>
</svg>